# Wavefront OBJ exported by MilkShape 3D

mtllib leeftijdcheck_ja.mtl

v -18.000000 21.000000 5.428571
v -18.000000 11.000000 5.428571
v 0.000000 21.000000 5.428571
v 0.000000 11.000000 5.428571
v 0.000000 21.000000 2.428572
v 0.000000 11.000000 2.428572
v -18.000000 21.000000 2.428572
v -18.000000 11.000000 2.428572
# 8 vertices

vt 0.285207 0.407079
vt 0.285207 0.228241
vt 0.497095 0.407079
vt 0.497095 0.228241
# 4 texture coordinates

vn 0.000000 0.000000 1.000000
vn 1.000000 0.000000 0.000000
vn 0.000000 0.000000 -1.000000
vn -1.000000 0.000000 0.000000
vn 0.000000 1.000000 0.000000
vn 0.000000 -1.000000 0.000000
# 6 normals

g ja
usemtl base
s 1
f 1/1/1 2/2/1 3/3/1
f 2/2/1 4/4/1 3/3/1
s 2
f 3/3/2 4/4/2 5/3/2
f 4/4/2 6/4/2 5/3/2
s 1
f 5/3/3 6/4/3 7/1/3
f 6/4/3 8/2/3 7/1/3
s 2
f 7/1/4 8/2/4 1/1/4
f 8/2/4 2/2/4 1/1/4
s 3
f 7/1/5 1/1/5 5/3/5
f 1/1/5 3/3/5 5/3/5
f 2/2/6 8/2/6 4/4/6
f 8/2/6 6/4/6 4/4/6
# 12 triangles in group

# 12 triangles total

