# Wavefront OBJ exported by MilkShape 3D

mtllib leeftijdcheck_bg.mtl

v -38.250000 50.500000 2.500000
v -38.250000 -0.500000 2.500000
v 38.250000 50.500000 2.500000
v 38.250000 -0.500000 2.500000
v 38.250000 50.500000 2.500000
v 38.250000 -0.500000 2.500000
v 38.250000 50.500000 -2.500000
v 38.250000 -0.500000 -2.500000
v 38.250000 50.500000 -2.500000
v 38.250000 -0.500000 -2.500000
v -38.250000 50.500000 -2.500000
v -38.250000 -0.500000 -2.500000
v -38.250000 50.500000 -2.500000
v -38.250000 -0.500000 -2.500000
v -38.250000 50.500000 2.500000
v -38.250000 -0.500000 2.500000
v -38.250000 50.500000 2.500000
v 38.250000 50.500000 2.500000
v -38.250000 -0.500000 2.500000
v 38.250000 -0.500000 2.500000
# 20 vertices

vt 0.000000 1.000000
vt 0.000000 0.000000
vt 1.000000 1.000000
vt 1.000000 0.000000
# 4 texture coordinates

vn 0.000000 0.000000 1.000000
vn 1.000000 0.000000 0.000000
vn 0.000000 0.000000 -1.000000
vn -1.000000 0.000000 0.000000
vn 0.000000 1.000000 0.000000
vn 0.000000 -1.000000 0.000000
# 6 normals

g back
usemtl base
s 1
f 1/1/1 2/2/1 3/3/1
f 2/2/1 4/4/1 3/3/1
s 2
f 5/1/2 6/2/2 7/3/2
f 6/2/2 8/4/2 7/3/2
s 1
f 9/1/3 10/2/3 11/3/3
f 10/2/3 12/4/3 11/3/3
s 2
f 13/1/4 14/2/4 15/3/4
f 14/2/4 16/4/4 15/3/4
s 3
f 13/1/5 17/2/5 7/3/5
f 17/2/5 18/4/5 7/3/5
f 19/1/6 14/2/6 20/3/6
f 14/2/6 8/4/6 20/3/6
# 12 triangles in group

# 12 triangles total

